<?xml version="1.0" encoding="utf-8"?>
<!-- Uploaded to: SVG Repo, www.svgrepo.com, Generator: SVG Repo Mixer Tools -->
<svg width="800px" height="800px" viewBox="0 0 48 48" data-name="Layer 1" xmlns="http://www.w3.org/2000/svg">
<title>capricorn</title>
<g fill="#000000" class="nc-icon-wrapper">
<path d="M23 17C22 11 19 1 9 1 4 1 3 3 3 3c12 1 11 15 11 15" opacity=".3">
</path>
<path d="M25 17c1-6 4-16 14-16 5 0 6 2 6 2-12 1-11 15-11 15" opacity=".3">
</path>
<circle cx="18" cy="29" r="2">
</circle>
<circle cx="30" cy="29" r="2">
</circle>
<path d="M13 19v10.343a4 4 0 0 0 1.172 2.829L17 35l2.03 8.119A5.123 5.123 0 0 0 24 47a5.123 5.123 0 0 0 4.97-3.881L31 35l2.828-2.828A4 4 0 0 0 35 29.343V19a31.25 31.25 0 0 0-22 0z" fill="none" stroke="#000000" stroke-miterlimit="10" stroke-width="2">
</path>
<path d="M27 39.677a3.1 3.1 0 0 1-6 0" fill="none" stroke="#000000" stroke-miterlimit="10" stroke-width="2">
</path>
<path fill="none" stroke="#000000" stroke-miterlimit="10" stroke-width="2" d="M24 42v5">
</path>
<path d="M10 21.8A10 10 0 0 1 2 12h6a5 5 0 0 1 5 5v5" fill="none" stroke="#000000" stroke-miterlimit="10" stroke-width="2">
</path>
<path d="M38 21.8a10 10 0 0 0 8-9.8h-6a5 5 0 0 0-5 5v5" fill="none" stroke="#000000" stroke-miterlimit="10" stroke-width="2">
</path>
<path d="M23 17C22 11 19 1 9 1 4 1 3 3 3 3c12 1 11 15 11 15" fill="none" stroke="#000000" stroke-miterlimit="10" stroke-width="2">
</path>
<path d="M25 17c1-6 4-16 14-16 5 0 6 2 6 2-12 1-11 15-11 15" fill="none" stroke="#000000" stroke-miterlimit="10" stroke-width="2">
</path>
</g>
</svg>