<?xml version="1.0" encoding="utf-8"?>
<!-- Uploaded to: SVG Repo, www.svgrepo.com, Generator: SVG Repo Mixer Tools -->
<svg width="800px" height="800px" viewBox="0 0 48 48" data-name="Layer 1" xmlns="http://www.w3.org/2000/svg">
<title>cancer</title>
<g fill="#000000" class="nc-icon-wrapper">
<path d="M9.331 12C8.25 8 9 5.312 12.071 2.613A8.02 8.02 0 1 0 16.6 7.5 12.219 12.219 0 0 1 9.331 12z" opacity=".3">
</path>
<path d="M38.669 12c1.081-4 .331-6.687-2.74-9.387A8.02 8.02 0 1 1 31.4 7.5a12.219 12.219 0 0 0 7.269 4.5z" opacity=".3">
</path>
<circle cx="17" cy="22" r="2">
</circle>
<circle cx="31" cy="22" r="2">
</circle>
<path d="M9.331 12C8.25 8 9 5.312 12.071 2.613A8.02 8.02 0 1 0 16.6 7.5 12.219 12.219 0 0 1 9.331 12z" fill="none" stroke="#000000" stroke-linecap="square" stroke-miterlimit="10" stroke-width="2">
</path>
<path d="M24 26c-7.236 0-13.414 3.192-15.867 7.69a1.982 1.982 0 0 0 .979 2.732l14.08 6.221a2 2 0 0 0 1.616 0l14.08-6.221a1.982 1.982 0 0 0 .979-2.732C37.414 29.192 31.236 26 24 26z" fill="none" stroke="#000000" stroke-linecap="square" stroke-miterlimit="10" stroke-width="2">
</path>
<path d="M16 46a7.97 7.97 0 0 1 2.236-5.547" fill="none" stroke="#000000" stroke-miterlimit="10" stroke-width="2">
</path>
<path d="M10 46a13.937 13.937 0 0 1 2.548-8.055" fill="none" stroke="#000000" stroke-miterlimit="10" stroke-width="2">
</path>
<path d="M32 46a7.97 7.97 0 0 0-2.236-5.547" fill="none" stroke="#000000" stroke-miterlimit="10" stroke-width="2">
</path>
<path d="M38 46a13.937 13.937 0 0 0-2.548-8.055" fill="none" stroke="#000000" stroke-miterlimit="10" stroke-width="2">
</path>
<path d="M5 17s-2 8 5 10" fill="none" stroke="#000000" stroke-miterlimit="10" stroke-width="2">
</path>
<path d="M38.669 12c1.081-4 .331-6.687-2.74-9.387A8.02 8.02 0 1 1 31.4 7.5a12.219 12.219 0 0 0 7.269 4.5z" fill="none" stroke="#000000" stroke-linecap="square" stroke-miterlimit="10" stroke-width="2">
</path>
<path d="M43 17s2 8-5 10" fill="none" stroke="#000000" stroke-miterlimit="10" stroke-width="2">
</path>
</g>
</svg>