<?xml version="1.0" encoding="utf-8"?>
<!-- Uploaded to: SVG Repo, www.svgrepo.com, Generator: SVG Repo Mixer Tools -->
<svg width="800px" height="800px" viewBox="0 0 48 48" data-name="Layer 1" xmlns="http://www.w3.org/2000/svg">
<title>sagittarius</title>
<g fill="#000000" class="nc-icon-wrapper">
<path opacity=".3" d="M44 4l-4 13-3-6-6-3 13-4z">
</path>
<path d="M44.987 40.8c-1.3.122-1.933-.27-2.912-1.982-2.884-5.047-4.527-14.27-11.575-21.318S14.229 8.809 9.185 5.925C7.473 4.946 7.081 4.31 7.2 3.013" fill="none" stroke="#000000" stroke-linecap="square" stroke-miterlimit="10" stroke-width="2">
</path>
<path fill="none" stroke="#000000" stroke-miterlimit="10" stroke-width="2" d="M14 38h27.637">
</path>
<path fill="none" stroke="#000000" stroke-miterlimit="10" stroke-width="2" d="M10 6.363V38">
</path>
<path fill="none" stroke="#000000" stroke-miterlimit="10" stroke-width="2" d="M3 45l34-34">
</path>
<path fill="none" stroke="#000000" stroke-linecap="square" stroke-miterlimit="10" stroke-width="2" d="M4 38h6v6">
</path>
<path fill="none" stroke="#000000" stroke-linecap="square" stroke-miterlimit="10" stroke-width="2" d="M44 4l-4 13-3-6-6-3 13-4z">
</path>
</g>
</svg>