<?xml version="1.0" encoding="utf-8"?>
<!-- Uploaded to: SVG Repo, www.svgrepo.com, Generator: SVG Repo Mixer Tools -->
<svg width="800px" height="800px" viewBox="0 0 48 48" data-name="Layer 1" xmlns="http://www.w3.org/2000/svg">
<title>libra</title>
<g fill="#000000" class="nc-icon-wrapper">
<path d="M9 32a8 8 0 0 0 8-8H1a8 8 0 0 0 8 8z" opacity=".3">
</path>
<path d="M39 32a8 8 0 0 1-8-8h16a8 8 0 0 1-8 8z" opacity=".3">
</path>
<path fill="none" stroke="#000000" stroke-linecap="square" stroke-miterlimit="10" stroke-width="2" d="M24 10v24">
</path>
<circle cx="24" cy="7" r="3" fill="none" stroke="#000000" stroke-linecap="square" stroke-miterlimit="10" stroke-width="2">
</circle>
<path d="M17 24a8 8 0 0 1-16 0l8-10z" fill="none" stroke="#000000" stroke-linecap="square" stroke-miterlimit="10" stroke-width="2">
</path>
<path fill="none" stroke="#000000" stroke-miterlimit="10" stroke-width="2" d="M1 24h16">
</path>
<path d="M24 38a6 6 0 0 1 6 6H18a6 6 0 0 1 6-6z" fill="none" stroke="#000000" stroke-miterlimit="10" stroke-width="2">
</path>
<path d="M21.058 7.588l-9.316 1.864a6 6 0 0 1-4.925-1.2L4 6" fill="none" stroke="#000000" stroke-linecap="square" stroke-miterlimit="10" stroke-width="2">
</path>
<path d="M31 24a8 8 0 0 0 16 0l-8-10z" fill="none" stroke="#000000" stroke-linecap="square" stroke-miterlimit="10" stroke-width="2">
</path>
<path fill="none" stroke="#000000" stroke-miterlimit="10" stroke-width="2" d="M47 24H31">
</path>
<path d="M26.942 7.588l9.316 1.864a6 6 0 0 0 4.925-1.2L44 6" fill="none" stroke="#000000" stroke-linecap="square" stroke-miterlimit="10" stroke-width="2">
</path>
</g>
</svg>