<?xml version="1.0" encoding="utf-8"?>
<!-- Uploaded to: SVG Repo, www.svgrepo.com, Generator: SVG Repo Mixer Tools -->
<svg width="800px" height="800px" viewBox="0 0 48 48" data-name="Layer 1" xmlns="http://www.w3.org/2000/svg">
<title>scorpio</title>
<g fill="#000000" class="nc-icon-wrapper">
<path d="M37.319 37.056a3 3 0 0 1 1.332-4.028c.687-.345 2.231-2.241 1.332-4.028l2.7 5.36a3 3 0 1 1-5.36 2.7z" opacity=".3">
</path>
<path d="M7.923 10.589C5.839 7.081 5.431 4.367 6.577 1.08a4.312 4.312 0 0 0-2.27.165C1.339 2.313.149 6.555 1.648 10.719s5.121 6.674 8.089 5.605 4.157-5.31 2.658-9.474a10.991 10.991 0 0 0-1.118-2.257c-.561 2.861-1.566 4.687-3.354 5.996z" opacity=".3">
</path>
<path d="M40.077 10.589c2.084-3.508 2.492-6.222 1.346-9.509a4.312 4.312 0 0 1 2.27.165c2.968 1.068 4.158 5.31 2.659 9.474s-5.121 6.674-8.089 5.605-4.157-5.31-2.663-9.474a10.991 10.991 0 0 1 1.118-2.257c.566 2.861 1.571 4.687 3.359 5.996z" opacity=".3">
</path>
<path d="M7.923 10.589C5.839 7.081 5.431 4.367 6.577 1.08a4.312 4.312 0 0 0-2.27.165C1.339 2.313.149 6.555 1.648 10.719s5.121 6.674 8.089 5.605 4.157-5.31 2.658-9.474a10.991 10.991 0 0 0-1.118-2.257c-.561 2.861-1.566 4.687-3.354 5.996z" fill="none" stroke="#000000" stroke-linecap="square" stroke-miterlimit="10" stroke-width="2">
</path>
<path d="M37.319 37.056a3 3 0 0 1 1.332-4.028c.687-.345 2.231-2.241 1.332-4.028l2.7 5.36a3 3 0 1 1-5.36 2.7z" fill="none" stroke="#000000" stroke-linecap="square" stroke-miterlimit="10" stroke-width="2">
</path>
<path d="M22.626 38.515a2.067 2.067 0 0 0 2.661 0c2.019-1.787 5.626-5.791 5.626-11.581A36.909 36.909 0 0 0 28.062 13.4a2.3 2.3 0 0 0-2.137-1.4h-3.937a2.3 2.3 0 0 0-2.137 1.4A36.909 36.909 0 0 0 17 26.934c0 5.79 3.607 9.794 5.626 11.581z" fill="none" stroke="#000000" stroke-linecap="square" stroke-miterlimit="10" stroke-width="2">
</path>
<path d="M40 39a8 8 0 0 1-16 0" fill="none" stroke="#000000" stroke-linecap="square" stroke-miterlimit="10" stroke-width="2">
</path>
<path fill="none" stroke="#000000" stroke-linecap="square" stroke-miterlimit="10" stroke-width="2" d="M22 12v-2">
</path>
<path fill="none" stroke="#000000" stroke-linecap="square" stroke-miterlimit="10" stroke-width="2" d="M26 12v-2">
</path>
<path d="M20.284 12.734c-4.659 4.974-9.306 10.331-17.118.819" fill="none" stroke="#000000" stroke-miterlimit="10" stroke-width="2">
</path>
<path d="M40.077 10.589c2.084-3.508 2.492-6.222 1.346-9.509a4.312 4.312 0 0 1 2.27.165c2.968 1.068 4.158 5.31 2.659 9.474s-5.121 6.674-8.089 5.605-4.157-5.31-2.663-9.474a10.991 10.991 0 0 1 1.118-2.257c.566 2.861 1.571 4.687 3.359 5.996z" fill="none" stroke="#000000" stroke-linecap="square" stroke-miterlimit="10" stroke-width="2">
</path>
<path d="M27.716 12.734c4.659 4.974 9.306 10.331 17.118.819" fill="none" stroke="#000000" stroke-miterlimit="10" stroke-width="2">
</path>
<path d="M18.6 33.4l-1.472 1.472A7.265 7.265 0 0 1 11.991 37H10" fill="none" stroke="#000000" stroke-miterlimit="10" stroke-width="2">
</path>
<path d="M17.076 28.374L15.6 29.691a7.267 7.267 0 0 1-6.023 1.738L7 31" fill="none" stroke="#000000" stroke-miterlimit="10" stroke-width="2">
</path>
<path d="M30.924 28.374l1.48 1.317A7.264 7.264 0 0 0 36 31.422" fill="none" stroke="#000000" stroke-miterlimit="10" stroke-width="2">
</path>
<path d="M17.4 22l-2.945 1.84a7.262 7.262 0 0 1-7.1.338L5 23" fill="none" stroke="#000000" stroke-miterlimit="10" stroke-width="2">
</path>
<path d="M29.4 33.4l1.472 1.472A7.269 7.269 0 0 0 34 36.717" fill="none" stroke="#000000" stroke-miterlimit="10" stroke-width="2">
</path>
<path d="M30.6 22l2.945 1.84a7.262 7.262 0 0 0 7.1.338L43 23" fill="none" stroke="#000000" stroke-miterlimit="10" stroke-width="2">
</path>
</g>
</svg>