<?xml version="1.0" encoding="utf-8"?>
<!-- Uploaded to: SVG Repo, www.svgrepo.com, Generator: SVG Repo Mixer Tools -->
<svg width="800px" height="800px" viewBox="0 0 48 48" data-name="Layer 1" xmlns="http://www.w3.org/2000/svg">
<title>aries</title>
<g fill="#000000" class="nc-icon-wrapper">
<path d="M2.444 17.9A40.055 40.055 0 0 0 2.25 22c0 11.984 3.34 17.148 5.626 17.813 1.791.52 3.748-.521 5.457-2.73-4.333.25-6.5-3.333-6.818-8.57A49.9 49.9 0 0 1 6.75 20a6.214 6.214 0 0 1-4.306-2.1z" opacity=".3">
</path>
<path d="M15 14c-3.208-4.375-8.5-4.25-12 0z" opacity=".3">
</path>
<path d="M45.556 17.9a40.055 40.055 0 0 1 .194 4.1c0 11.984-3.34 17.148-5.626 17.813-1.791.52-3.748-.521-5.457-2.73 4.333.25 6.5-3.333 6.818-8.57A49.9 49.9 0 0 0 41.25 20a6.214 6.214 0 0 0 4.306-2.1z" opacity=".3">
</path>
<path d="M33 14c3.208-4.375 8.5-4.25 12 0z" opacity=".3">
</path>
<circle cx="18" cy="28" r="2">
</circle>
<circle cx="30" cy="28" r="2">
</circle>
<path d="M11 20H7a6 6 0 0 1-6-6h14" fill="none" stroke="#000000" stroke-miterlimit="10" stroke-width="2">
</path>
<path d="M37 20h4a6 6 0 0 0 6-6H33" fill="none" stroke="#000000" stroke-miterlimit="10" stroke-width="2">
</path>
<path d="M15 14l-2.6 12.145a4 4 0 0 0 .787 3.337L16 33l2.824 9.177a5.415 5.415 0 0 0 10.352 0L32 33l2.815-3.518a4 4 0 0 0 .787-3.337L33 14a41 41 0 0 0-18 0z" fill="none" stroke="#000000" stroke-miterlimit="10" stroke-width="2">
</path>
<path d="M27 38.677a3.1 3.1 0 0 1-6 0" fill="none" stroke="#000000" stroke-miterlimit="10" stroke-width="2">
</path>
<path fill="none" stroke="#000000" stroke-miterlimit="10" stroke-width="2" d="M24 41v5">
</path>
<path d="M2.444 17.9A40.055 40.055 0 0 0 2.25 22c0 11.984 3.34 17.148 5.626 17.813 1.791.52 3.748-.521 5.457-2.73-4.333.25-6.5-3.333-6.818-8.57a46.2 46.2 0 0 1 .018-6.261" fill="none" stroke="#000000" stroke-miterlimit="10" stroke-width="2">
</path>
<path d="M24 13C22.4 7.054 18.863 2 12 2 8.214 2 4.588 6.629 3.036 14" fill="none" stroke="#000000" stroke-miterlimit="10" stroke-width="2">
</path>
<path d="M15 14c-3.208-4.375-8.5-4.25-12 0" fill="none" stroke="#000000" stroke-miterlimit="10" stroke-width="2">
</path>
<path d="M45.556 17.9a40.055 40.055 0 0 1 .194 4.1c0 11.984-3.34 17.148-5.626 17.813-1.791.52-3.748-.521-5.457-2.73 4.333.25 6.5-3.333 6.818-8.57a46.2 46.2 0 0 0-.018-6.261" fill="none" stroke="#000000" stroke-miterlimit="10" stroke-width="2">
</path>
<path d="M24 13c1.605-5.946 5.137-11 12-11 3.786 0 7.412 4.629 8.964 12" fill="none" stroke="#000000" stroke-miterlimit="10" stroke-width="2">
</path>
<path d="M33 14c3.208-4.375 8.5-4.25 12 0" fill="none" stroke="#000000" stroke-miterlimit="10" stroke-width="2">
</path>
</g>
</svg>