<?xml version="1.0" encoding="utf-8"?>
<!-- Uploaded to: SVG Repo, www.svgrepo.com, Generator: SVG Repo Mixer Tools -->
<svg width="800px" height="800px" viewBox="0 0 48 48" data-name="Layer 1" xmlns="http://www.w3.org/2000/svg">
<title>aquarius</title>
<g fill="#000000" class="nc-icon-wrapper">
<path d="M26.423 22.839c2.489 6.038-1.309 9.469-5.532 12C16.237 37.635 9.515 41 9.515 41l-3.758-3.757L2 33.485s3.365-6.722 6.158-11.376c2.534-4.223 5.965-8.021 12-5.532l1.878-5.636 10.02 10.02z" opacity=".3">
</path>
<path fill="none" stroke="#000000" stroke-miterlimit="10" stroke-width="2" d="M26.423 22.839l-2.505-2.504">
</path>
<path d="M26.423 22.839c2.489 6.038-1.309 9.469-5.532 12C16.237 37.635 9.515 41 9.515 41l-3.758-3.757L2 33.485s3.365-6.722 6.158-11.376c2.534-4.223 5.965-8.021 12-5.532l1.878-5.636 10.02 10.02z" fill="none" stroke="#000000" stroke-miterlimit="10" stroke-width="2">
</path>
<path d="M27 12a5 5 0 0 1 10 0v25a5 5 0 1 0 5-5" fill="none" stroke="#000000" stroke-miterlimit="10" stroke-width="2">
</path>
<path d="M36 5a5 5 0 0 1 5 5v18" fill="none" stroke="#000000" stroke-miterlimit="10" stroke-width="2">
</path>
<path d="M30 36a3 3 0 1 0 3 3V27" fill="none" stroke="#000000" stroke-miterlimit="10" stroke-width="2">
</path>
<circle cx="7" cy="12" r="1">
</circle>
<path d="M13.719 5.328A9.51 9.51 0 0 1 12 3a9.51 9.51 0 0 1-1.719 2.328A9.509 9.509 0 0 1 8 7a9.5 9.5 0 0 1 4 4 9.5 9.5 0 0 1 4-4 9.509 9.509 0 0 1-2.281-1.672z">
</path>
</g>
</svg>