<?xml version="1.0" encoding="utf-8"?>
<!-- Uploaded to: SVG Repo, www.svgrepo.com, Generator: SVG Repo Mixer Tools -->
<svg width="800px" height="800px" viewBox="0 0 48 48" data-name="Layer 1" xmlns="http://www.w3.org/2000/svg">
<title>taurus</title>
<g fill="#000000" class="nc-icon-wrapper">
<path d="M38 16h2a7 7 0 0 0 7-7V2h-.08A6.994 6.994 0 0 1 40 8h-6z" opacity=".3">
</path>
<path d="M14 8H8a6.994 6.994 0 0 1-6.92-6H1v7a7 7 0 0 0 7 7h2z" opacity=".3">
</path>
<path fill="none" stroke="#000000" stroke-miterlimit="10" stroke-width="2" d="M18 31l2-8">
</path>
<path d="M20 24h-2.037a3.178 3.178 0 0 1-2.841-1.755L14 20h4.72A2.28 2.28 0 0 1 21 22.28V23a1 1 0 0 1-1 1z">
</path>
<path fill="none" stroke="#000000" stroke-miterlimit="10" stroke-width="2" d="M30 31l-2-8">
</path>
<path d="M28 24h2.037a3.178 3.178 0 0 0 2.841-1.755L34 20h-4.72A2.28 2.28 0 0 0 27 22.28V23a1 1 0 0 0 1 1z">
</path>
<path d="M15 35l-3.118-4.988a7 7 0 0 1-.563-6.31L12 22l-2-6 4-8h20l4 8-2 6 .681 1.7a7 7 0 0 1-.563 6.31L33 35" fill="none" stroke="#000000" stroke-miterlimit="10" stroke-width="2">
</path>
<path d="M31 41v1a3 3 0 0 1-3 3h-8a3 3 0 0 1-3-3v-1" fill="none" stroke="#000000" stroke-miterlimit="10" stroke-width="2">
</path>
<path d="M18.459 31h11.082a3 3 0 0 1 2.941 2.412l.8 4A3 3 0 0 1 30.341 41H17.659a3 3 0 0 1-2.941-3.588l.8-4A3 3 0 0 1 18.459 31z" fill="none" stroke="#000000" stroke-linecap="square" stroke-miterlimit="10" stroke-width="2">
</path>
<circle cx="19.5" cy="36.5" r="1.5">
</circle>
<circle cx="28.5" cy="36.5" r="1.5">
</circle>
<path d="M9 23H7a6 6 0 0 1-6-6h9" fill="none" stroke="#000000" stroke-miterlimit="10" stroke-width="2">
</path>
<path d="M39 23h2a6 6 0 0 0 6-6h-9" fill="none" stroke="#000000" stroke-miterlimit="10" stroke-width="2">
</path>
<path d="M38 16h2a7 7 0 0 0 7-7V2h-.08A6.994 6.994 0 0 1 40 8h-6" fill="none" stroke="#000000" stroke-linecap="square" stroke-miterlimit="10" stroke-width="2">
</path>
<path d="M14 8H8a6.994 6.994 0 0 1-6.92-6H1v7a7 7 0 0 0 7 7h2" fill="none" stroke="#000000" stroke-linecap="square" stroke-miterlimit="10" stroke-width="2">
</path>
</g>
</svg>