<?xml version="1.0" encoding="utf-8"?>
<!-- Uploaded to: SVG Repo, www.svgrepo.com, Generator: SVG Repo Mixer Tools -->
<svg width="800px" height="800px" viewBox="0 0 48 48" data-name="Layer 1" xmlns="http://www.w3.org/2000/svg">
<title>virgo</title>
<g fill="#000000" class="nc-icon-wrapper">
<path d="M17 46a14.211 14.211 0 0 1-1.952-7.453H20.6a3.086 3.086 0 0 0 3.055-2.65l.65-4.552 4.108-1.645a1.028 1.028 0 0 0 .538-1.415l-3.615-7.23c0-6.454-1.077-10.884-4.506-13.289 0 0-.638 5.058-6.811 9.173A13.292 13.292 0 0 0 7.846 27.23C.387 21.057-.385 12.826 2.7 7.682S11.19.823 17.106 1.337c7.559.658 12.419 8 13.632 18.005C33 38 45 34 45 34s-2 16-28 12z" opacity=".3">
</path>
<path d="M18.681 19.924l3.848 1.924a4.165 4.165 0 0 0 0-3.848z">
</path>
<path d="M17 46a14.211 14.211 0 0 1-1.952-7.453H20.6a3.086 3.086 0 0 0 3.055-2.65l.65-4.552 4.108-1.645a1.028 1.028 0 0 0 .538-1.415l-3.615-7.23c0-6.454-1.077-10.884-4.506-13.289 0 0-.638 5.058-6.811 9.173A13.292 13.292 0 0 0 7.846 27.23C.387 21.057-.385 12.826 2.7 7.682S11.19.823 17.106 1.337c7.559.658 12.419 8 13.632 18.005C33 38 45 34 45 34s-2 16-28 12z" fill="none" stroke="#000000" stroke-linecap="square" stroke-miterlimit="10" stroke-width="2">
</path>
<circle cx="41" cy="17" r="1">
</circle>
<path d="M38.719 8.328A9.51 9.51 0 0 1 37 6a9.5 9.5 0 0 1-4 4 9.5 9.5 0 0 1 4 4 9.5 9.5 0 0 1 4-4 9.509 9.509 0 0 1-2.281-1.672z">
</path>
<path d="M32.485 26.672c3 2 6.1 1.828 10.1-.172a6.213 6.213 0 0 1-2.166 5.208" fill="none" stroke="#000000" stroke-miterlimit="10" stroke-width="2">
</path>
</g>
</svg>